<svg width="24" height="24" viewBox="0 0 24 24" fill="none" xmlns="http://www.w3.org/2000/svg">
<g clip-path="url(#clip0_12_879)">
<path d="M12.0033 7.95708C9.73189 7.95708 7.89975 9.76059 7.89975 11.9965C7.89975 14.2325 9.73189 16.036 12.0033 16.036C14.2747 16.036 16.1069 14.2325 16.1069 11.9965C16.1069 9.76059 14.2747 7.95708 12.0033 7.95708ZM12.0033 14.6227C10.5355 14.6227 9.33546 13.445 9.33546 11.9965C9.33546 10.5481 10.5319 9.37036 12.0033 9.37036C13.4747 9.37036 14.6712 10.5481 14.6712 11.9965C14.6712 13.445 13.4712 14.6227 12.0033 14.6227V14.6227ZM17.2319 7.79184C17.2319 8.31567 16.8033 8.73403 16.2747 8.73403C15.7426 8.73403 15.3176 8.31216 15.3176 7.79184C15.3176 7.27153 15.7462 6.84966 16.2747 6.84966C16.8033 6.84966 17.2319 7.27153 17.2319 7.79184ZM19.9497 8.74809C19.889 7.48598 19.5962 6.36802 18.6569 5.44692C17.7212 4.52583 16.5855 4.23755 15.3033 4.17427C13.9819 4.10044 10.0212 4.10044 8.69975 4.17427C7.42118 4.23403 6.28546 4.52231 5.34618 5.44341C4.40689 6.3645 4.11761 7.48247 4.05332 8.74458C3.97832 10.0454 3.97832 13.9442 4.05332 15.245C4.11403 16.5071 4.40689 17.625 5.34618 18.5461C6.28546 19.4672 7.4176 19.7555 8.69975 19.8188C10.0212 19.8926 13.9819 19.8926 15.3033 19.8188C16.5855 19.759 17.7212 19.4707 18.6569 18.5461C19.5926 17.625 19.8855 16.5071 19.9497 15.245C20.0247 13.9442 20.0247 10.0489 19.9497 8.74809V8.74809ZM18.2426 16.6407C17.964 17.3297 17.4247 17.8606 16.7212 18.1383C15.6676 18.5497 13.1676 18.4547 12.0033 18.4547C10.839 18.4547 8.33546 18.5461 7.28546 18.1383C6.58546 17.8641 6.04618 17.3332 5.76403 16.6407C5.34618 15.6036 5.44261 13.1426 5.44261 11.9965C5.44261 10.8504 5.34975 8.38598 5.76403 7.35239C6.0426 6.66333 6.58189 6.13247 7.28546 5.85474C8.33903 5.44341 10.839 5.53833 12.0033 5.53833C13.1676 5.53833 15.6712 5.44692 16.7212 5.85474C17.4212 6.12895 17.9605 6.65981 18.2426 7.35239C18.6605 8.3895 18.564 10.8504 18.564 11.9965C18.564 13.1426 18.6605 15.6071 18.2426 16.6407Z" fill="white"/>
</g>
<defs>
<clipPath id="clip0_12_879">
<rect width="16" height="18" fill="white" transform="translate(4 3)"/>
</clipPath>
</defs>
</svg>
